<svg width="1239" height="1239" viewBox="0 0 1239 1239" fill="none" xmlns="http://www.w3.org/2000/svg">
<path d="M216.922 148.319C216.922 159.994 225.558 168.65 235.601 166.838C245.443 164.825 243.434 158.786 229.375 147.715L216.922 138.254V148.319Z" fill="#3CC84A"/>
<path d="M302.686 161.806C295.656 168.851 293.648 173.481 296.46 176.3C301.883 181.735 315.943 176.903 318.955 168.248C320.361 164.423 322.37 159.189 323.776 156.371C327.994 147.312 313.331 150.936 302.686 161.806Z" fill="#3CC84A"/>
<path d="M250.665 169.455C248.255 179.319 254.281 191.598 261.511 191.598C266.533 191.598 266.131 172.475 261.11 169.455C258.699 168.046 258.097 165.228 259.302 163.215C260.507 161.001 259.704 159.39 257.494 159.39C255.084 159.39 252.071 164.02 250.665 169.455Z" fill="#3CC84A"/>
<path d="M220.939 177.709C220.939 185.157 230.379 195.624 237.007 195.624C249.862 195.624 250.063 188.176 237.409 181.735C224.554 175.092 220.939 174.287 220.939 177.709Z" fill="#3CC84A"/>
<path d="M273.964 180.326C267.336 186.969 267.939 195.624 274.768 195.624C279.99 195.624 285.212 187.371 285.212 179.118C285.212 174.085 279.789 174.488 273.964 180.326Z" fill="#3CC84A"/>
<path d="M289.43 195.423C283.605 206.092 289.832 208.709 305.498 202.066C318.152 196.832 318.353 196.43 310.319 192.001C298.468 185.761 294.05 186.364 289.43 195.423Z" fill="#3CC84A"/>
<path d="M197.841 200.254C190.007 208.105 191.815 209.917 207.883 209.917C218.529 209.716 222.947 207.904 222.947 203.677C222.947 196.027 204.469 193.612 197.841 200.254Z" fill="#3CC84A"/>
<path d="M646.949 199.852C639.518 203.073 595.531 238.502 582.475 251.989C572.031 262.658 513.783 312.782 505.147 318.217C491.489 327.074 490.886 331.905 503.741 329.49C513.984 327.678 526.236 340.36 526.236 353.243C526.236 366.529 532.463 363.912 558.775 339.152C588.903 310.97 639.919 265.476 653.176 255.008C662.013 248.164 662.616 248.164 676.073 261.047C683.705 268.294 695.355 278.762 701.983 284.197C708.611 289.833 726.487 305.333 741.752 318.821C756.816 332.308 795.581 366.529 827.517 394.912C888.375 448.66 939.392 493.952 954.456 507.641C959.276 512.069 980.567 530.992 1001.86 549.713C1050.26 592.59 1050.66 595.408 1007.28 593.596L974.14 592.187V817.644V1043.1L853.627 1045.11L733.115 1047.13L701.581 1062.43C684.308 1071.08 657.193 1080.54 641.526 1083.96C625.659 1087.19 611.8 1090.81 610.595 1092.02C609.59 1093.22 694.752 1093.43 800.2 1092.82L974.14 1091.57L991.542 1090.02L1003.92 1086.39L1011.66 1081.74L1017.85 1075.02L1021.46 1066.22C1026.11 1037.77 1024.55 1052.96 1023.35 840.19L1022.34 642.512H1035.6C1095.25 642.512 1107.91 574.674 1056.49 531.797C1036.4 515.089 987.195 471.608 974.943 459.932C970.725 455.705 948.029 435.776 924.529 415.646C901.029 395.516 849.41 350.022 809.841 314.593C770.273 278.963 729.5 242.729 719.256 233.872C709.013 225.014 696.359 213.742 691.137 208.709C685.714 203.676 679.487 199.65 677.077 199.65C674.868 199.65 669.244 198.644 664.825 197.839C660.406 196.832 652.372 197.839 646.949 199.852Z" fill="#FFC000"/>
<path d="M273.562 215.755C283.003 233.67 281.998 253.398 270.55 285.606C266.733 296.074 265.327 309.158 266.733 320.431C269.947 346.6 266.533 350.224 240.422 346.399C201.456 340.762 162.691 346.6 152.046 359.282C147.226 365.321 147.426 365.522 154.657 361.899C169.721 354.25 213.708 355.457 237.208 364.315C301.481 388.471 323.374 455.705 295.656 542.667C278.182 597.22 257.092 600.642 257.092 549.109C257.092 502.608 224.956 473.017 175.144 473.621L158.674 473.822L184.785 483.485C224.956 498.381 238.614 515.491 235.802 546.894C233.392 574.271 237.208 586.349 253.879 604.466L265.327 616.947L245.041 652.779C145.217 830.729 191.815 973.652 372.583 1044.71C400.904 1055.98 399.297 1053.57 362.541 1030.02C236.003 949.496 202.661 830.527 271.956 706.929L279.789 692.838L323.776 690.824C375.998 688.409 396.284 679.552 415.767 650.564C425.006 636.876 430.63 632.246 439.267 631.642C453.326 630.636 456.741 627.616 451.117 621.98C444.489 615.337 430.831 621.376 412.352 639.493C390.66 660.629 369.37 669.889 336.028 672.506C298.87 675.324 295.054 667.876 312.729 627.616C319.558 612.317 328.195 589.369 332.011 576.888C342.054 544.68 370.976 526.563 418.177 523.544C463.168 520.524 486.467 481.673 474.818 428.731C472.006 416.25 470.6 414.036 470.198 421.081C466.583 469.192 444.69 493.348 393.673 505.024C383.831 507.238 372.784 510.258 369.37 511.465C356.515 516.498 348.079 504.017 346.673 477.647C346.071 462.952 341.451 442.419 335.626 427.926L325.784 403.367L333.819 390.282C338.237 383.036 345.267 376.191 349.485 374.782C362.541 370.555 373.587 352.84 373.186 336.938L372.784 322.444L369.169 335.327C366.758 343.782 359.327 352.639 347.878 360.49C338.237 367.133 329.4 375.185 327.994 378.607C324.78 387.062 312.126 386.458 304.092 377.6C293.849 366.529 287.823 330.496 291.037 300.502C298.267 232.261 295.255 215.553 273.362 203.878C265.127 199.449 265.127 199.449 273.562 215.755ZM327.592 524.751C321.968 556.959 302.887 606.882 272.156 670.292C212.101 794.092 203.866 851.463 237.208 916.684C241.828 925.743 244.84 933.996 243.836 934.801C241.426 937.217 218.93 893.132 212.905 874.612C205.674 851.463 207.08 801.943 216.319 766.916C224.554 735.111 228.571 726.253 276.374 631.441C292.443 600.038 310.118 559.778 315.943 541.862C327.391 507.238 331.81 500.595 327.592 524.751Z" fill="#E9B475"/>
<path d="M235.802 206.092C229.576 212.332 233.593 215.754 247.452 215.754C257.092 215.754 261.31 214.144 260.105 210.722C258.298 205.085 240.221 201.663 235.802 206.092Z" fill="#3CC84A"/>
<path d="M303.289 215.754C299.673 221.793 303.891 226.625 317.349 231.255C332.413 236.488 336.229 230.852 324.78 219.982C315.139 210.923 307.105 209.514 303.289 215.754Z" fill="#3CC84A"/>
<path d="M164.298 222.8C164.097 224.41 164.097 230.651 164.499 236.489C164.901 242.326 162.691 249.573 159.478 252.391C152.649 259.034 155.26 272.119 163.696 272.119C167.914 272.119 169.119 268.898 167.914 260.041C166.508 250.378 167.512 247.963 173.337 247.963C177.554 247.963 180.768 245.144 180.768 241.924C180.768 235.683 165.102 217.365 164.298 222.8Z" fill="#3CC84A"/>
<path d="M257.293 225.618C249.259 235.281 254.08 240.716 264.122 233.67C269.144 230.248 272.157 225.618 270.951 223.605C267.738 218.17 262.917 218.975 257.293 225.618Z" fill="#3CC84A"/>
<path d="M216.52 238.502C205.473 251.586 204.268 256.015 210.294 262.054C218.529 270.307 225.96 260.645 224.153 243.735C222.947 231.456 222.747 231.255 216.52 238.502Z" fill="#3CC84A"/>
<path d="M125.734 254.203C136.179 263.261 134.974 266.08 121.516 264.469C113.884 263.463 120.311 275.541 128.948 278.359C138.79 281.379 145.82 276.95 142.807 269.099C141.602 265.878 142.405 260.645 144.815 257.625C151.845 249.372 145.619 243.937 129.35 244.138H114.486L125.734 254.203Z" fill="#3CC84A"/>
<path d="M186.593 257.826C177.956 266.482 176.952 269.502 180.969 274.333C187.195 281.781 195.029 276.145 198.644 261.45C202.259 246.553 198.845 245.547 186.593 257.826Z" fill="#3CC84A"/>
<path d="M409.741 255.008C398.092 258.833 390.459 268.495 392.669 276.547C395.481 287.216 401.908 284.398 411.147 268.495C419.382 254.605 418.98 251.989 409.741 255.008Z" fill="#3CC84A"/>
<path d="M368.164 272.521C361.135 282.586 363.947 293.255 373.186 291.444C377.404 290.638 379.814 285.606 380.216 277.151C381.019 262.054 376.6 260.443 368.164 272.521Z" fill="#3CC84A"/>
<path d="M203.465 280.372C191.213 290.035 189.807 298.288 199.648 302.113C207.08 304.931 218.328 293.859 214.512 287.418C213.306 285.405 214.311 281.177 217.123 277.957C224.353 269.301 215.516 270.911 203.465 280.372Z" fill="#3CC84A"/>
<path d="M153.653 278.963C150.841 279.969 146.623 284.599 144.213 289.028C139.593 297.483 157.067 297.08 165.905 288.625C170.123 284.398 160.08 276.749 153.653 278.963Z" fill="#3CC84A"/>
<path d="M171.328 290.84C169.922 292.45 168.717 298.288 168.918 303.924V314.392L176.952 304.931C186.191 293.658 181.17 280.976 171.328 290.84Z" fill="#3CC84A"/>
<path d="M313.331 293.255C313.331 299.898 327.994 316.405 333.818 316.405C336.028 316.405 336.831 314.795 335.626 312.781C334.421 310.768 335.626 308.152 338.438 307.145C342.254 305.736 342.053 303.924 337.434 299.294C328.395 290.236 313.331 286.411 313.331 293.255Z" fill="#3CC84A"/>
<path d="M383.228 294.06C377.404 308.957 391.865 310.567 400.904 296.275C405.322 289.028 404.72 288.223 395.681 288.223C390.057 288.223 384.434 290.84 383.228 294.06Z" fill="#3CC84A"/>
<path d="M121.316 304.931C122.721 319.022 133.768 328.886 140.397 322.243C143.209 319.425 141.602 313.989 135.576 305.333C124.127 289.028 119.709 288.827 121.316 304.931Z" fill="#3CC84A"/>
<path d="M347.677 301.307C351.895 314.996 356.314 318.217 363.545 312.379C369.169 307.749 369.169 306.541 362.942 299.697C353.301 289.028 344.263 289.833 347.677 301.307Z" fill="#3CC84A"/>
<path d="M412.352 298.892C406.327 305.132 410.545 311.574 421.792 313.184C435.651 315.197 438.463 307.145 426.01 300.502C416.972 295.47 415.968 295.47 412.352 298.892Z" fill="#3CC84A"/>
<path d="M153.452 317.21C146.623 324.054 147.426 328.483 155.862 328.483C160.281 328.483 162.892 325.463 162.892 320.431C162.892 311.171 160.281 310.366 153.452 317.21Z" fill="#3CC84A"/>
<path d="M179.764 316.807C171.328 321.639 170.324 336.535 178.559 336.535C181.572 336.535 188.2 331.1 192.819 324.457C202.259 311.171 195.631 307.346 179.764 316.807Z" fill="#3CC84A"/>
<path d="M381.622 318.82C381.622 323.652 384.032 324.658 390.66 323.048C395.681 321.639 401.104 320.431 402.912 320.431C404.72 320.431 405.122 318.619 403.716 316.405C399.498 309.561 381.622 311.574 381.622 318.82Z" fill="#3CC84A"/>
<path d="M338.438 319.827C334.622 322.041 336.028 324.457 343.46 328.483C354.506 334.522 359.729 332.106 356.113 322.645C353.502 315.801 346.271 314.593 338.438 319.827Z" fill="#3CC84A"/>
<path d="M407.532 328.684C403.314 335.528 411.549 341.366 423.198 339.957C429.827 338.951 432.638 336.938 430.63 334.119C426.211 327.074 410.745 323.45 407.532 328.684Z" fill="#3CC84A"/>
<path d="M379.211 338.749C380.216 345.593 393.673 360.691 398.493 360.691C407.733 360.691 399.297 338.95 389.053 336.334C381.421 334.119 378.609 334.924 379.211 338.749Z" fill="#3CC84A"/>
<path d="M128.546 341.769C128.546 348.412 136.781 356.665 143.409 356.665C151.444 356.665 149.636 345.392 140.798 340.762C130.756 335.327 128.546 335.528 128.546 341.769Z" fill="#3CC84A"/>
<path d="M486.869 352.84C476.224 362.704 475.822 366.931 484.659 370.555C492.894 373.574 496.309 370.152 499.724 355.659C502.736 342.574 498.719 341.568 486.869 352.84Z" fill="#3CC84A"/>
<path d="M109.465 361.496C111.474 367.535 132.162 368.743 133.568 362.704C134.17 360.49 128.546 358.074 121.115 357.47C111.273 356.464 108.059 357.47 109.465 361.496Z" fill="#3CC84A"/>
<path d="M458.147 368.542C452.724 378.607 456.942 388.873 466.382 388.873C474.416 388.873 475.42 384.646 471.403 369.75C468.591 358.678 463.57 358.074 458.147 368.542Z" fill="#3CC84A"/>
<path d="M166.106 371.159C163.696 376.997 174.542 392.497 178.358 388.672C181.371 385.451 175.948 364.717 172.131 364.717C170.123 364.717 167.311 367.535 166.106 371.159Z" fill="#3CC84A"/>
<path d="M375.596 368.743C371.579 375.185 376.6 379.815 389.656 381.626C403.113 383.639 403.314 383.438 397.489 372.568C393.07 364.315 379.814 361.899 375.596 368.743Z" fill="#3CC84A"/>
<path d="M82.3499 379.211L70.2987 389.276L86.367 388.068C99.6233 387.062 102.636 385.25 103.64 377.802C105.448 365.925 97.6148 366.328 82.3499 379.211Z" fill="#3CC84A"/>
<path d="M147.025 374.983C143.209 378.808 141.2 384.445 142.405 387.665C143.61 390.886 144.614 395.315 144.614 397.328C144.614 399.341 146.422 400.951 148.632 400.951C150.841 400.951 152.649 397.73 152.649 393.704C152.649 389.678 154.858 384.243 157.469 381.626C160.884 378.204 161.084 375.587 158.072 372.568C155.059 369.548 151.845 370.152 147.025 374.983Z" fill="#3CC84A"/>
<path d="M113.08 386.86L103.64 396.925H113.281C123.927 396.925 132.563 390.282 132.563 382.029C132.563 373.776 123.324 375.99 113.08 386.86Z" fill="#3CC84A"/>
<path d="M481.245 383.841C475.019 390.886 475.621 400.951 482.048 400.951C484.057 400.951 489.48 395.516 494.1 388.873C504.142 374.581 492.895 370.354 481.245 383.841Z" fill="#3CC84A"/>
<path d="M405.724 396.321C405.724 403.367 418.98 417.055 425.809 417.055C434.848 417.055 440.271 409.808 435.049 404.575C430.027 399.542 405.724 392.698 405.724 396.321Z" fill="#3CC84A"/>
<path d="M441.878 395.114C441.878 399.341 454.933 417.055 457.946 417.055C464.976 417.055 465.779 403.769 458.95 398.536C451.92 393.1 441.878 391.087 441.878 395.114Z" fill="#3CC84A"/>
<path d="M178.96 405.782C170.926 417.458 170.926 427.523 179.161 430.744C189.405 434.77 193.221 429.536 192.217 412.627C191.213 394.711 187.999 393.1 178.96 405.782Z" fill="#3CC84A"/>
<path d="M124.73 408.802C120.512 416.451 122.721 429.133 128.345 429.133C132.764 429.133 140.999 409.003 138.388 404.776C134.773 398.737 129.149 400.347 124.73 408.802Z" fill="#3CC84A"/>
<path d="M480.241 408.802C479.036 410.815 479.839 413.633 482.048 415.042C487.271 418.263 502.134 413.633 502.134 408.802C502.134 403.769 483.254 403.769 480.241 408.802Z" fill="#3CC84A"/>
<path d="M508.963 415.445C507.557 417.055 507.959 420.477 510.168 423.094C515.189 429.133 535.275 425.912 533.065 419.672C531.458 414.438 513.181 411.217 508.963 415.445Z" fill="#3CC84A"/>
<path d="M441.878 421.081C436.455 424.705 436.455 425.51 441.878 429.133C453.728 436.783 465.177 431.952 457.343 422.49C452.121 416.049 449.912 415.847 441.878 421.081Z" fill="#3CC84A"/>
<path d="M490.484 428.731C483.454 433.361 487.271 439.198 502.134 446.647C515.993 453.491 518.202 448.66 507.959 433.965C501.13 424.302 498.719 423.497 490.484 428.731Z" fill="#3CC84A"/>
<path d="M136.58 448.056C136.58 456.913 143.811 465.367 151.644 465.367C159.879 465.367 156.063 453.088 145.619 446.244C137.384 440.809 136.58 440.809 136.58 448.056Z" fill="#3CC84A"/>
<path d="M165.102 448.458C159.679 458.523 162.089 465.367 170.926 465.367C177.354 465.367 177.956 459.731 173.136 447.25C170.123 439.601 169.922 439.601 165.102 448.458Z" fill="#3CC84A"/>
<path d="M185.187 448.458C176.751 464.361 187.597 468.387 201.657 454.296L214.712 441.211H201.858C193.623 441.211 187.798 443.828 185.187 448.458Z" fill="#3CC84A"/>
<path d="M98.4182 453.289C106.854 462.549 122.721 463.958 125.734 455.705C128.948 447.452 125.132 445.237 107.256 445.237C91.3883 445.237 91.1875 445.439 98.4182 453.289Z" fill="#3CC84A"/>
<path d="M210.896 459.932C202.26 468.387 208.888 475.231 221.541 471.004C226.764 469.192 233.794 468.186 237.007 468.79C240.823 469.192 239.417 466.575 233.593 461.543C222.144 451.478 219.332 451.478 210.896 459.932Z" fill="#3CC84A"/>
<path d="M488.476 459.932C484.86 469.192 489.279 473.419 502.335 473.419C514.788 473.419 517.599 468.991 509.164 462.549C499.322 454.698 490.685 453.692 488.476 459.932Z" fill="#3CC84A"/>
<path d="M124.931 469.192C117.098 471.205 116.495 472.413 120.914 476.036C130.153 483.686 142.204 484.088 143.61 477.043C145.217 468.991 137.785 465.971 124.931 469.192Z" fill="#3CC84A"/>
<path d="M148.632 495.764C143.209 509.855 143.008 509.855 156.666 503.011C170.324 496.167 172.734 485.498 160.683 485.498C155.461 485.498 151.042 489.524 148.632 495.764Z" fill="#3CC84A"/>
<path d="M113.884 499.991C105.649 512.673 108.863 515.894 122.922 509.05C136.982 502.206 139.392 495.16 128.546 492.342C122.721 490.933 118.303 493.147 113.884 499.991Z" fill="#3CC84A"/>
<path d="M177.554 494.355C171.529 500.394 171.328 512.271 176.952 515.894C182.777 519.316 184.183 517.504 187.195 502.407C189.807 489.121 185.99 485.9 177.554 494.355Z" fill="#3CC84A"/>
<path d="M433.643 593.596C426.412 599.434 425.408 602.453 428.822 608.291C432.638 615.337 433.643 614.934 443.485 604.466C460.155 586.349 452.724 578.096 433.643 593.596Z" fill="#3CC84A"/>
<path d="M365.152 601.648C371.378 613.122 376.399 615.538 388.451 612.518C401.908 609.096 394.275 600.44 374.19 596.213C361.737 593.596 361.135 593.999 365.152 601.648Z" fill="#3CC84A"/>
<path d="M403.916 607.285C407.331 624.395 411.348 628.22 417.575 620.57C421.792 615.538 421.592 612.518 416.169 604.265C406.728 589.973 400.502 591.382 403.916 607.285Z" fill="#3CC84A"/>
<path d="M381.622 620.369C381.622 624.798 395.882 638.486 400.502 638.486C409.942 638.486 405.925 626.207 395.481 622.382C383.831 617.752 381.622 617.551 381.622 620.369Z" fill="#3CC84A"/>
<path d="M369.57 642.11C369.57 646.136 379.211 650.564 387.848 650.564C391.062 650.564 392.468 648.149 391.062 644.525C388.652 638.084 369.57 635.869 369.57 642.11Z" fill="#3CC84A"/>
<path d="M432.438 645.532C426.613 654.993 440.472 664.454 452.121 659.22C458.549 656.201 461.762 652.779 459.553 650.564C453.728 644.928 434.848 641.506 432.438 645.532Z" fill="#3CC84A"/>
<path d="M882.55 645.934C878.734 647.545 868.692 657.811 860.457 668.681C824.102 716.994 742.957 733.701 657.394 710.552C631.885 703.708 612.603 709.143 596.535 728.065C580.668 746.786 578.86 752.825 590.309 749.202C596.133 747.39 604.971 752.624 623.851 768.527C654.18 794.293 689.128 811.806 716.846 815.228C742.756 818.248 744.162 825.293 723.274 845.625L707.406 861.326L639.919 861.528C602.761 861.729 565.202 860.521 556.364 858.709C547.527 856.898 530.454 853.475 518.202 851.06C506.151 848.443 466.382 846.027 429.827 845.625C393.472 845.222 358.122 843.612 351.494 842.001C344.866 840.592 319.759 834.956 295.656 829.521C243.635 817.845 243.836 817.845 259.101 826.702C275.571 836.365 314.135 849.248 354.506 858.307C358.323 859.112 365.553 860.924 370.575 862.131C387.647 866.157 419.784 872.599 431.835 874.209C438.463 875.216 460.155 878.638 480.04 881.658C514.788 887.093 669.043 888.099 695.154 882.865C764.449 869.378 811.649 852.67 830.529 834.956C845.794 820.462 840.773 820.06 812.453 833.748C773.889 852.469 755.812 856.092 764.649 843.41C768.466 837.975 770.072 830.527 768.666 824.689C766.859 817.241 768.064 814.624 774.893 812.813C786.342 809.994 785.538 806.572 771.679 798.319C758.624 790.67 739.141 769.13 739.141 762.487C739.141 760.072 746.974 765.507 756.816 774.566C787.346 802.748 810.444 810.196 843.987 803.15C881.747 794.897 892.191 783.624 862.264 783.423C850.816 783.221 821.089 769.533 804.218 756.65C784.936 741.754 790.56 741.351 816.67 755.442L839.166 767.721L844.991 758.461C848.405 753.429 853.226 744.37 855.837 738.734C858.85 731.89 868.491 724.442 883.153 717.597C905.046 707.331 952.046 672.909 952.046 667.272C952.046 665.662 946.623 661.032 939.794 657.207L927.542 649.96L911.272 668.48C895.606 686.194 873.11 701.695 868.892 697.467C867.888 696.461 870.7 693.441 875.32 691.026C883.956 686.396 907.858 653.986 907.858 646.74C907.858 642.11 893.597 641.506 882.55 645.934ZM632.287 729.474C635.3 737.325 632.086 743.163 624.654 743.163C617.424 743.163 613.407 736.318 616.219 728.87C619.031 721.02 629.274 721.422 632.287 729.474ZM759.226 825.495C759.226 842.605 751.192 854.885 738.739 856.898C723.876 858.911 723.876 854.482 739.141 843.209C748.179 836.365 750.389 832.339 748.581 825.092C746.974 818.047 747.979 815.631 752.799 815.631C757.017 815.631 759.226 819.053 759.226 825.495Z" fill="white"/>
<path d="M416.369 665.46C412.151 669.688 413.357 691.63 417.775 688.811C426.211 683.578 429.827 671.701 424.403 667.071C421.391 664.655 417.775 663.85 416.369 665.46Z" fill="#3CC84A"/>
<path d="M437.861 675.525C438.062 678.344 441.677 685.188 446.096 690.824L454.13 700.889L453.126 686.798C451.92 673.311 437.66 662.642 437.861 675.525Z" fill="#3CC84A"/>
<path d="M460.155 718.403C457.544 729.877 455.937 731.085 441.878 731.085C415.365 731.085 408.335 745.176 404.117 806.17L402.31 834.956L427.015 832.943C455.536 830.527 459.151 827.306 467.788 797.514C471.202 786.04 477.429 772.15 481.848 766.514C487.672 759.065 488.476 755.241 485.262 752.02C481.848 748.598 481.848 744.572 485.463 736.721C490.083 726.656 489.882 726.253 480.241 728.669C472.207 730.682 469.997 729.675 469.997 724.039C469.796 709.143 462.967 705.318 460.155 718.403ZM445.895 753.228C445.895 760.877 440.673 763.494 433.844 759.267C429.224 756.448 429.224 754.838 433.643 749.604C439.267 742.559 445.895 744.572 445.895 753.228Z" fill="white"/>
<path d="M549.535 749.403C546.723 755.643 542.706 758.663 539.292 757.455C510.57 746.383 495.104 756.448 479.437 796.105C473.211 812.41 467.386 826.904 466.583 828.715C465.98 830.326 475.019 831.735 486.668 831.936C498.518 831.936 521.215 834.352 537.082 837.17L566.005 842.203L568.416 827.306C569.821 819.053 568.817 804.761 566.005 795.501C561.386 780.403 561.586 777.786 567.612 773.358C577.052 766.514 576.249 763.293 565.403 764.299C557.569 765.104 556.565 763.695 557.569 752.221C559.176 736.52 555.963 735.312 549.535 749.403ZM525.433 776.78C526.236 780.605 524.228 783.423 520.813 783.423C513.181 783.423 508.762 776.78 512.377 771.143C515.993 765.306 524.027 768.527 525.433 776.78Z" fill="white"/>
<path d="M825.91 867.768C812.854 898.164 758.222 940.437 732.312 940.437C729.701 940.437 726.487 942.249 725.081 944.262C722.269 949.093 748.179 940.236 771.077 928.561C792.568 917.489 792.769 917.69 781.32 946.074C766.457 982.509 727.09 1015.32 688.727 1022.77C656.59 1029.21 618.026 1031.63 594.526 1028.61C548.33 1022.57 537.484 1020.96 534.471 1019.15C532.864 1018.14 525.433 1016.13 517.8 1014.92C505.347 1012.7 459.151 999.217 446.899 994.185C444.087 992.977 441.878 993.782 441.878 995.795C441.878 1009.48 534.672 1038.67 592.518 1043.3C638.714 1047.13 626.06 1053.77 572.433 1053.97C467.587 1054.58 360.532 998.815 292.242 908.431C275.772 886.69 275.772 895.95 291.84 923.327C339.844 1004.65 413.357 1060.41 487.271 1072.09C528.245 1078.53 513.181 1082.76 469.997 1077.12C453.527 1074.91 430.831 1072.29 419.784 1071.08C391.464 1068.46 360.13 1058.8 327.592 1042.7C294.25 1026.39 297.263 1026.59 297.263 1039.48C297.263 1062.02 317.349 1087.59 338.438 1091.61C391.263 1101.88 592.317 1091.41 619.031 1077.12C623.449 1074.71 640.321 1068.46 656.791 1063.03C736.329 1037.06 788.953 986.737 821.692 905.411C836.756 867.768 840.773 834.151 825.91 867.768Z" fill="white"/>
<path d="M805.222 867.768C783.731 888.703 687.923 904.405 581.471 904.405C484.258 904.203 489.48 904.405 461.963 899.775C449.912 897.762 430.027 895.346 417.775 894.138C405.724 892.93 393.07 891.32 389.656 890.313C386.442 889.307 376.4 887.495 367.562 886.489C358.724 885.281 340.648 882.463 327.391 880.047C314.135 877.632 297.464 874.612 290.233 873.203C281.797 871.794 277.178 872.599 277.178 875.417C277.178 878.034 279.99 880.047 283.203 880.047C286.618 880.047 308.712 884.878 332.413 890.716C356.113 896.352 379.211 901.788 383.63 902.593C388.049 903.197 407.934 906.82 427.818 910.242C447.703 913.866 475.822 918.496 490.083 920.71C504.544 922.924 521.617 925.541 528.245 926.548C652.774 946.275 777.705 922.522 810.444 872.8C816.269 864.144 812.653 860.32 805.222 867.768Z" fill="white"/>
<path d="M321.366 909.236C355.109 941.645 421.591 978.483 468.39 990.763C507.557 1000.83 515.189 997.204 480.04 985.126C420.788 964.996 401.305 950.502 450.514 962.983C464.373 966.607 479.437 970.029 483.856 970.633C488.476 971.236 507.557 973.853 526.236 976.47C546.322 979.49 572.031 980.295 588.501 978.685C603.966 977.275 624.052 975.262 633.09 974.457C647.953 973.048 670.851 966.607 670.851 963.587C670.851 962.983 652.372 963.587 629.676 964.594C606.979 965.801 579.462 965.399 568.415 963.788C557.368 962.178 541.099 959.964 532.262 958.957C518.001 957.145 495.907 953.119 465.98 946.476C460.557 945.269 451.117 943.457 445.292 942.45C431.634 939.834 357.519 915.677 329.4 904.606L307.306 895.749L321.366 909.236Z" fill="white"/>
<path d="M741.551 954.73C707.004 973.451 666.03 988.347 640.924 991.367C632.287 992.373 623.65 994.185 621.843 995.191C620.035 996.399 604.77 997.204 587.898 997.204C564.198 997.204 558.373 998.412 561.988 1002.04C565.403 1005.46 585.89 1006.87 627.868 1006.87C706.201 1006.87 742.154 992.574 769.872 950.1C779.513 935.405 776.5 936.009 741.551 954.73Z" fill="white"/>
<path d="M658.277 411.408V453.131C658.277 458.654 653.8 463.131 648.277 463.131H606.688V421.408C606.688 415.885 611.165 411.408 616.688 411.408H658.277Z" fill="white"/>
<path d="M669.626 411.408H711.216C716.738 411.408 721.216 415.885 721.216 421.408V463.131H679.626C674.104 463.131 669.626 458.654 669.626 453.131V411.408Z" fill="white"/>
<path d="M721.216 348.306V390.029C721.216 395.552 716.738 400.029 711.216 400.029H669.626V358.306C669.626 352.783 674.104 348.306 679.626 348.306H721.216Z" fill="white"/>
<path d="M606.688 348.306H648.277C653.8 348.306 658.277 352.783 658.277 358.306V400.029H616.688C611.165 400.029 606.688 395.552 606.688 390.029V348.306Z" fill="white"/>
</svg>
